<svg width="84" height="90" viewBox="0 0 84 90" fill="none" xmlns="http://www.w3.org/2000/svg">
<path d="M51.3333 27.3333V40C51.3333 41.1046 50.4379 42 49.3333 42H34.6667C33.5621 42 32.6667 41.1046 32.6667 40V27.3333M54 30L42 18L30 30" stroke="white" stroke-width="2" stroke-linecap="round" stroke-linejoin="round"/>
<path d="M22.208 69.032C21.7813 69.032 21.568 68.9147 21.568 68.68V58.12C21.568 57.8853 21.7813 57.768 22.208 57.768H22.336C22.7627 57.768 22.976 57.8853 22.976 58.12V62.648H28.768V58.12C28.768 57.8853 28.9813 57.768 29.408 57.768H29.536C29.9627 57.768 30.176 57.8853 30.176 58.12V68.68C30.176 68.9147 29.9627 69.032 29.536 69.032H29.408C28.9813 69.032 28.768 68.9147 28.768 68.68V63.864H22.976V68.68C22.976 68.9147 22.7627 69.032 22.336 69.032H22.208ZM36.3264 69.096C35.121 69.096 34.1984 68.7333 33.5584 68.008C32.929 67.2827 32.6144 66.232 32.6144 64.856C32.6144 63.4693 32.9344 62.4027 33.5744 61.656C34.2144 60.9093 35.1317 60.536 36.3264 60.536C37.4997 60.536 38.3957 60.9093 39.0144 61.656C39.6437 62.392 39.9584 63.4587 39.9584 64.856C39.9584 66.2427 39.649 67.2987 39.0304 68.024C38.4224 68.7387 37.521 69.096 36.3264 69.096ZM36.2784 67.944C37.0677 67.944 37.6437 67.6933 38.0064 67.192C38.3797 66.68 38.5664 65.8907 38.5664 64.824C38.5664 63.7573 38.3797 62.968 38.0064 62.456C37.6437 61.944 37.0677 61.688 36.2784 61.688C35.4997 61.688 34.929 61.944 34.5664 62.456C34.2037 62.9573 34.0224 63.7467 34.0224 64.824C34.0224 65.8907 34.2037 66.68 34.5664 67.192C34.929 67.6933 35.4997 67.944 36.2784 67.944ZM42.8438 69.032C42.4171 69.032 42.2038 68.9147 42.2038 68.68V63.064C42.2038 62.6267 42.1878 62.264 42.1558 61.976C42.1238 61.688 42.0918 61.4693 42.0598 61.32C42.0278 61.16 42.0118 61.0693 42.0118 61.048C42.0118 60.9733 42.0438 60.9147 42.1078 60.872C42.1824 60.8187 42.2678 60.7813 42.3638 60.76C42.4598 60.728 42.5558 60.7067 42.6518 60.696C42.7478 60.6853 42.8224 60.68 42.8758 60.68C43.0038 60.68 43.0998 60.7387 43.1638 60.856C43.2384 60.9733 43.2918 61.1173 43.3238 61.288C43.3664 61.448 43.4038 61.5973 43.4358 61.736C43.7024 61.4267 44.0438 61.1493 44.4598 60.904C44.8864 60.6587 45.3558 60.536 45.8678 60.536C46.1344 60.536 46.4118 60.5733 46.6998 60.648C46.9984 60.712 47.2758 60.84 47.5318 61.032C47.7984 61.224 48.0064 61.5013 48.1558 61.864C48.4651 61.5013 48.8384 61.192 49.2758 60.936C49.7238 60.6693 50.1984 60.536 50.6998 60.536C50.9558 60.536 51.2278 60.5733 51.5158 60.648C51.8038 60.712 52.0758 60.8347 52.3318 61.016C52.5984 61.1973 52.8118 61.4587 52.9718 61.8C53.1318 62.1413 53.2118 62.584 53.2118 63.128V68.68C53.2118 68.9147 52.9984 69.032 52.5718 69.032H52.5078C52.0811 69.032 51.8678 68.9147 51.8678 68.68V63.256C51.8678 62.7867 51.7398 62.4133 51.4838 62.136C51.2278 61.848 50.8438 61.704 50.3318 61.704C50.0438 61.704 49.7771 61.7627 49.5318 61.88C49.2971 61.9973 49.0838 62.136 48.8918 62.296C48.7104 62.4453 48.5664 62.584 48.4598 62.712C48.3638 62.84 48.3051 62.9147 48.2838 62.936L48.2678 62.392C48.3211 62.5093 48.3531 62.6373 48.3638 62.776C48.3744 62.904 48.3798 63.0267 48.3798 63.144V68.68C48.3798 68.9147 48.1664 69.032 47.7398 69.032H47.6758C47.2491 69.032 47.0358 68.9147 47.0358 68.68V63.256C47.0358 62.7867 46.9078 62.4133 46.6518 62.136C46.3958 61.848 46.0118 61.704 45.4998 61.704C45.2118 61.704 44.9451 61.7627 44.6998 61.88C44.4651 61.9867 44.2571 62.1147 44.0758 62.264C43.9051 62.4027 43.7718 62.5307 43.6758 62.648C43.5904 62.7547 43.5478 62.808 43.5478 62.808V68.68C43.5478 68.9147 43.3344 69.032 42.9078 69.032H42.8438ZM59.2063 69.096C57.8836 69.096 56.8969 68.7493 56.2463 68.056C55.6063 67.3627 55.2863 66.3013 55.2863 64.872C55.2863 63.9227 55.4249 63.128 55.7023 62.488C55.9903 61.848 56.4116 61.3627 56.9663 61.032C57.5209 60.7013 58.2036 60.536 59.0143 60.536C59.7503 60.536 60.3583 60.696 60.8383 61.016C61.3289 61.336 61.6969 61.8053 61.9423 62.424C62.1876 63.0427 62.3103 63.8053 62.3103 64.712C62.3103 64.776 62.2783 64.8613 62.2143 64.968C62.1609 65.064 62.0916 65.1547 62.0063 65.24C61.9209 65.3253 61.8463 65.368 61.7823 65.368H56.7263C56.7903 66.2533 57.0196 66.904 57.4143 67.32C57.8089 67.736 58.4009 67.944 59.1903 67.944C59.6596 67.944 60.0543 67.8907 60.3743 67.784C60.7049 67.6667 60.9663 67.5547 61.1583 67.448C61.3503 67.3307 61.4729 67.272 61.5263 67.272C61.6009 67.272 61.6809 67.3253 61.7663 67.432C61.8516 67.5387 61.9263 67.656 61.9903 67.784C62.0543 67.912 62.0863 68.008 62.0863 68.072C62.0863 68.168 62.0116 68.2747 61.8623 68.392C61.7129 68.5093 61.5049 68.6213 61.2383 68.728C60.9823 68.8347 60.6783 68.9253 60.3263 69C59.9849 69.064 59.6116 69.096 59.2063 69.096ZM56.7263 64.216H60.8863C60.8863 63.3733 60.7263 62.744 60.4063 62.328C60.0863 61.9013 59.6063 61.688 58.9663 61.688C58.2729 61.688 57.7396 61.9013 57.3663 62.328C56.9929 62.744 56.7796 63.3733 56.7263 64.216Z" fill="white"/>
</svg>
