<svg width="84" height="90" viewBox="0 0 84 90" fill="none" xmlns="http://www.w3.org/2000/svg">
<g clip-path="url(#clip0_1_31)">
<path d="M39.5991 39.5246C39.1664 39.5246 38.813 39.1621 38.813 38.7184C38.813 38.2746 39.1664 37.9121 39.5991 37.9121C40.0317 37.9121 40.3852 38.2746 40.3852 38.7184C40.3882 39.1621 40.0317 39.5246 39.5991 39.5246Z" fill="white"/>
<path d="M44.6965 37.0218C44.6965 37.1812 44.5685 37.3125 44.4132 37.3125H34.785C34.6296 37.3125 34.5017 37.1812 34.5017 37.0218V22.1375C34.5017 21.9781 34.6296 21.8468 34.785 21.8468H44.4101C44.5655 21.8468 44.6935 21.9781 44.6935 22.1375V37.0218H44.6965Z" fill="#E6E6E6"/>
<path d="M35.5954 25.0684C35.181 25.0684 34.8428 25.4152 34.8428 25.8402C34.8428 26.2652 35.181 26.6121 35.5954 26.6121C36.0097 26.6121 36.3479 26.2652 36.3479 25.8402C36.3479 25.4152 36.0097 25.0684 35.5954 25.0684ZM50.8968 32.0559C50.001 32.0559 49.2697 32.8059 49.2697 33.7246C49.2697 34.6434 50.001 35.3934 50.8968 35.3934C51.7925 35.3934 52.5238 34.6434 52.5238 33.7246C52.5238 32.8059 51.7925 32.0559 50.8968 32.0559Z" fill="white"/>
<path d="M50.8968 31.4316C49.6628 31.4316 48.6604 32.4598 48.6604 33.7254C48.6604 34.991 49.6628 36.0191 50.8968 36.0191C52.1308 36.0191 53.1332 34.991 53.1332 33.7254C53.1332 32.4598 52.1308 31.4316 50.8968 31.4316ZM49.2698 33.7254C49.2698 32.8066 50.001 32.0566 50.8968 32.0566C51.7926 32.0566 52.5238 32.8066 52.5238 33.7254C52.5238 34.6441 51.7926 35.3941 50.8968 35.3941C49.998 35.3941 49.2698 34.6441 49.2698 33.7254Z" fill="white"/>
<path d="M37.5425 31.0629C37.1952 31.0629 36.9148 31.3504 36.9148 31.7066C36.9148 32.0629 37.1952 32.3504 37.5425 32.3504C37.8898 32.3504 38.1702 32.0629 38.1702 31.7066C38.1702 31.3504 37.8868 31.0629 37.5425 31.0629ZM30.3092 27.166C29.8948 27.166 29.5566 27.5129 29.5566 27.9379C29.5566 28.3629 29.8948 28.7098 30.3092 28.7098C30.7236 28.7098 31.0618 28.3629 31.0618 27.9379C31.0618 27.5129 30.7236 27.166 30.3092 27.166Z" fill="white"/>
<path d="M32.2317 26.9559C32.1768 26.7934 32.0062 26.7059 31.8447 26.759L31.275 26.9559C31.0282 26.6996 30.6869 26.5402 30.306 26.5402C29.5565 26.5402 28.9441 27.1652 28.9441 27.9371C28.9441 28.709 29.5535 29.334 30.306 29.334C31.0586 29.334 31.668 28.709 31.668 27.9371C31.668 27.7871 31.6436 27.6402 31.601 27.5059L32.0397 27.3559C32.1982 27.2965 32.2835 27.1215 32.2317 26.9559ZM30.3091 28.7059C29.8947 28.7059 29.5565 28.359 29.5565 27.934C29.5565 27.509 29.8947 27.1621 30.3091 27.1621C30.7235 27.1621 31.0617 27.509 31.0617 27.934C31.0617 28.359 30.7235 28.7059 30.3091 28.7059ZM36.4364 27.3559L36.3297 27.0121C36.7045 26.7621 36.9543 26.3309 36.9543 25.8402C36.9543 25.0715 36.345 24.4434 35.5924 24.4434C34.8398 24.4434 34.2304 25.0684 34.2304 25.8402C34.2304 26.6121 34.8398 27.2371 35.5924 27.2371C35.6472 27.2371 35.7021 27.234 35.7539 27.2277L35.8514 27.5465C35.891 27.6809 36.0128 27.7652 36.1408 27.7652C36.1713 27.7652 36.2017 27.759 36.2322 27.7496C36.3998 27.6965 36.4882 27.5184 36.4364 27.3559ZM35.8727 26.5559C35.8605 26.559 35.8483 26.5652 35.8392 26.5684C35.763 26.5965 35.6807 26.6121 35.5954 26.6121C35.181 26.6121 34.8428 26.2652 34.8428 25.8402C34.8428 25.4152 35.181 25.0684 35.5954 25.0684C36.0098 25.0684 36.348 25.4152 36.348 25.8402C36.348 26.1621 36.15 26.4402 35.8727 26.5559ZM36.6984 29.5496C36.7289 29.5496 36.7593 29.5434 36.7898 29.534C36.9513 29.4809 37.0396 29.3059 36.9878 29.1434L36.805 28.5465C36.7532 28.3809 36.5826 28.2902 36.4242 28.3434C36.2627 28.3965 36.1743 28.5715 36.2261 28.734L36.4089 29.3309C36.4485 29.4652 36.5674 29.5496 36.6984 29.5496ZM39.7453 29.7871L39.5015 29.9777C39.3675 30.0809 39.34 30.2777 39.4436 30.4152C39.5046 30.4965 39.596 30.5371 39.6874 30.5371C39.7514 30.5371 39.8153 30.5152 39.8702 30.4746L40.1139 30.284C40.248 30.1809 40.2754 29.984 40.1718 29.8465C40.0713 29.709 39.8793 29.684 39.7453 29.7871ZM42.5971 27.9559C42.4966 27.8184 42.3046 27.7902 42.1706 27.8965L41.9268 28.0871C41.7928 28.1902 41.7653 28.3871 41.8689 28.5246C41.9299 28.6059 42.0213 28.6465 42.1127 28.6465C42.1767 28.6465 42.2407 28.6246 42.2955 28.584L42.5392 28.3934C42.6733 28.2902 42.7007 28.0934 42.5971 27.9559ZM40.9579 28.8402L40.7142 29.0309C40.5801 29.134 40.5527 29.3309 40.6563 29.4684C40.7172 29.5496 40.8086 29.5902 40.9 29.5902C40.964 29.5902 41.028 29.5684 41.0828 29.5277L41.3266 29.3371C41.4607 29.234 41.4881 29.0371 41.3845 28.8996C41.2839 28.7652 41.092 28.7371 40.9579 28.8402ZM38.5326 30.734L38.4229 30.8184C38.1975 30.584 37.8867 30.4371 37.5424 30.4371C37.4906 30.4371 37.4418 30.4402 37.3931 30.4465L37.3596 30.334C37.3078 30.1684 37.1371 30.0777 36.9757 30.1309C36.8142 30.184 36.7258 30.359 36.7776 30.5246L36.8233 30.6777C36.5095 30.909 36.3053 31.284 36.3053 31.709C36.3053 32.409 36.8599 32.9777 37.5424 32.9777C38.2249 32.9777 38.7794 32.409 38.7794 31.709C38.7794 31.5902 38.7642 31.4746 38.7337 31.3652L38.9013 31.234C39.0353 31.1309 39.0628 30.934 38.9592 30.7965C38.8586 30.6559 38.6667 30.6277 38.5326 30.734ZM36.9147 31.7059C36.9147 31.3496 37.195 31.0621 37.5424 31.0621C37.8897 31.0621 38.17 31.3496 38.17 31.7059C38.17 32.0621 37.8897 32.3496 37.5424 32.3496C37.195 32.3496 36.9147 32.0621 36.9147 31.7059Z" fill="white"/>
<path d="M52.7189 26.9625H46.7196V20.7125C46.7196 19.4063 45.6837 18.3438 44.4101 18.3438H34.785C33.5114 18.3438 32.4755 19.4063 32.4755 20.7125V39.0063C32.4755 40.3125 33.5114 41.375 34.785 41.375H52.7159C53.9895 41.375 55.0254 40.325 55.0254 39.0344V29.3062C55.0285 28.0125 53.9925 26.9625 52.7189 26.9625ZM44.4132 40.125H34.785C34.1848 40.125 33.6943 39.625 33.6943 39.0063V26.7812L33.7704 26.7563C33.9289 26.7 34.0142 26.525 33.9624 26.3594C33.9228 26.2375 33.8131 26.1563 33.6973 26.1469V20.7156C33.6973 20.1 34.1848 19.5969 34.7881 19.5969H44.4132C45.0134 19.5969 45.5039 20.0969 45.5039 20.7156V27.5938C45.446 27.6 45.3851 27.625 45.3364 27.6656C45.2084 27.7781 45.1932 27.975 45.3028 28.1062L45.5009 28.3438L45.5039 28.3469V39.0094C45.5009 39.625 45.0134 40.125 44.4132 40.125ZM53.8097 39.0344C53.8097 39.6375 53.3222 40.125 52.7189 40.125H46.4485C46.6221 39.7906 46.7227 39.4125 46.7227 39.0063V29.6406C46.7928 29.6406 46.8628 29.6156 46.9177 29.5656C47.0457 29.4531 47.0609 29.2563 46.9512 29.125L46.7532 28.8875C46.744 28.875 46.7318 28.8656 46.7196 28.8531V28.2125H52.7189C53.3192 28.2125 53.8097 28.7031 53.8097 29.3031V39.0344Z" fill="white"/>
<path d="M48.7305 31.2656C48.6208 31.1344 48.4288 31.1188 48.3009 31.2313C48.1729 31.3438 48.1577 31.5406 48.2673 31.6719L48.4654 31.9094C48.5263 31.9813 48.6116 32.0188 48.697 32.0188C48.767 32.0188 48.8371 31.9938 48.895 31.9438C49.023 31.8313 49.0382 31.6344 48.9285 31.5031L48.7305 31.2656ZM47.7402 30.0781C47.6305 29.9469 47.4386 29.9313 47.3106 30.0438C47.1827 30.1563 47.1674 30.3531 47.2771 30.4844L47.4752 30.7219C47.5361 30.7938 47.6214 30.8313 47.7067 30.8313C47.7768 30.8313 47.8469 30.8063 47.9048 30.7563C48.0327 30.6438 48.048 30.4469 47.9383 30.3156L47.7402 30.0781Z" fill="white"/>
<path d="M41.4424 20.9688H37.7556C37.5881 20.9688 37.451 20.8281 37.451 20.6562C37.451 20.4844 37.5881 20.3438 37.7556 20.3438H41.4424C41.6099 20.3438 41.747 20.4844 41.747 20.6562C41.747 20.8281 41.6099 20.9688 41.4424 20.9688Z" fill="#4F4F4F"/>
<path d="M44.599 24.0031C43.5753 24.0031 42.7435 24.8562 42.7435 25.9062C42.7435 26.9562 43.5753 27.8093 44.599 27.8093C45.6228 27.8093 46.4546 26.9562 46.4546 25.9062C46.4546 24.8562 45.6228 24.0031 44.599 24.0031Z" fill="white"/>
<path d="M44.599 23.3781C43.2401 23.3781 42.1341 24.5125 42.1341 25.9062C42.1341 27.3 43.2401 28.4343 44.599 28.4343C45.9579 28.4343 47.0639 27.3 47.0639 25.9062C47.0639 24.5125 45.9579 23.3781 44.599 23.3781ZM42.7465 25.9062C42.7465 24.8562 43.5783 24.0031 44.6021 24.0031C45.6258 24.0031 46.4576 24.8562 46.4576 25.9062C46.4576 26.9562 45.6258 27.8093 44.6021 27.8093C43.5783 27.8093 42.7465 26.9562 42.7465 25.9062Z" fill="white"/>
</g>
<path d="M23.948 65.88C23.788 65.88 23.6707 65.8107 23.596 65.672L20.748 60.712C20.6733 60.5947 20.604 60.4773 20.54 60.36C20.4867 60.2427 20.428 60.12 20.364 59.992L20.3 60.008C20.3213 60.1467 20.332 60.2907 20.332 60.44C20.332 60.5893 20.332 60.7387 20.332 60.888V68.68C20.332 68.9147 20.1187 69.032 19.692 69.032H19.58C19.1533 69.032 18.94 68.9147 18.94 68.68V58.12C18.94 57.8853 19.1533 57.768 19.58 57.768H20.156C20.348 57.768 20.4973 57.7947 20.604 57.848C20.7107 57.9013 20.7853 57.9707 20.828 58.056L23.852 63.304C23.9373 63.4427 24.0173 63.6027 24.092 63.784C24.1667 63.9653 24.2253 64.1413 24.268 64.312C24.3213 64.1307 24.396 63.944 24.492 63.752C24.5987 63.5493 24.6893 63.384 24.764 63.256L27.708 58.056C27.7613 57.9707 27.836 57.9013 27.932 57.848C28.0387 57.7947 28.188 57.768 28.38 57.768H28.908C29.3347 57.768 29.548 57.8853 29.548 58.12V68.68C29.548 68.9147 29.3347 69.032 28.908 69.032H28.796C28.3693 69.032 28.156 68.9147 28.156 68.68V60.984C28.156 60.8347 28.156 60.6853 28.156 60.536C28.1667 60.3867 28.1773 60.2427 28.188 60.104L28.124 60.088C28.06 60.216 27.996 60.3387 27.932 60.456C27.8787 60.5733 27.8147 60.6907 27.74 60.808L24.94 65.672C24.8653 65.8107 24.748 65.88 24.588 65.88H23.948ZM35.5764 69.096C34.371 69.096 33.4484 68.7333 32.8084 68.008C32.179 67.2827 31.8644 66.232 31.8644 64.856C31.8644 63.4693 32.1844 62.4027 32.8244 61.656C33.4644 60.9093 34.3817 60.536 35.5764 60.536C36.7497 60.536 37.6457 60.9093 38.2644 61.656C38.8937 62.392 39.2084 63.4587 39.2084 64.856C39.2084 66.2427 38.899 67.2987 38.2804 68.024C37.6724 68.7387 36.771 69.096 35.5764 69.096ZM35.5284 67.944C36.3177 67.944 36.8937 67.6933 37.2564 67.192C37.6297 66.68 37.8164 65.8907 37.8164 64.824C37.8164 63.7573 37.6297 62.968 37.2564 62.456C36.8937 61.944 36.3177 61.688 35.5284 61.688C34.7497 61.688 34.179 61.944 33.8164 62.456C33.4537 62.9573 33.2724 63.7467 33.2724 64.824C33.2724 65.8907 33.4537 66.68 33.8164 67.192C34.179 67.6933 34.7497 67.944 35.5284 67.944ZM45.2298 69.096C44.7711 69.096 44.3284 69 43.9018 68.808C43.4858 68.6053 43.0804 68.3013 42.6858 67.896C42.6218 68.312 42.5364 68.6267 42.4298 68.84C42.3978 68.9147 42.3444 68.968 42.2698 69C42.2058 69.0213 42.1151 69.032 41.9978 69.032H41.9338C41.6138 69.032 41.4538 68.9147 41.4538 68.68V57.32C41.4538 57.0853 41.6671 56.968 42.0938 56.968H42.1578C42.5844 56.968 42.7978 57.0853 42.7978 57.32V61.352C43.1071 61.1067 43.4431 60.9093 43.8058 60.76C44.1684 60.6107 44.5951 60.536 45.0858 60.536C46.0351 60.536 46.8138 60.904 47.4218 61.64C48.0298 62.3653 48.3338 63.4213 48.3338 64.808C48.3338 65.64 48.2058 66.3813 47.9498 67.032C47.7044 67.672 47.3471 68.1787 46.8778 68.552C46.4191 68.9147 45.8698 69.096 45.2298 69.096ZM44.9578 67.928C45.5871 67.928 46.0724 67.6507 46.4138 67.096C46.7551 66.5307 46.9258 65.7307 46.9258 64.696C46.9258 63.7467 46.7444 63.016 46.3818 62.504C46.0298 61.9813 45.4964 61.72 44.7818 61.72C44.4404 61.72 44.0938 61.7787 43.7418 61.896C43.4004 62.0133 43.0858 62.1947 42.7978 62.44V66.824C43.1284 67.1867 43.4804 67.464 43.8538 67.656C44.2378 67.8373 44.6058 67.928 44.9578 67.928ZM51.2991 69.032C50.8725 69.032 50.6591 68.9147 50.6591 68.68V60.952C50.6591 60.7173 50.8725 60.6 51.2991 60.6H51.3631C51.7898 60.6 52.0031 60.7173 52.0031 60.952V68.68C52.0031 68.9147 51.7898 69.032 51.3631 69.032H51.2991ZM51.3311 59.48C51.0751 59.48 50.8938 59.448 50.7871 59.384C50.6805 59.32 50.6271 59.2347 50.6271 59.128V58.168C50.6271 58.0613 50.6805 57.976 50.7871 57.912C50.8938 57.848 51.0751 57.816 51.3311 57.816C51.5871 57.816 51.7685 57.848 51.8751 57.912C51.9818 57.9653 52.0351 58.0507 52.0351 58.168V59.128C52.0351 59.2347 51.9818 59.32 51.8751 59.384C51.7685 59.448 51.5871 59.48 51.3311 59.48ZM56.8135 69.096C56.6108 69.096 56.3922 69.064 56.1575 69C55.9228 68.9467 55.6988 68.8453 55.4855 68.696C55.2722 68.536 55.0962 68.312 54.9575 68.024C54.8188 67.7253 54.7495 67.3467 54.7495 66.888V57.32C54.7495 57.0853 54.9628 56.968 55.3895 56.968H55.4535C55.8802 56.968 56.0935 57.0853 56.0935 57.32V66.76C56.0935 67.24 56.1788 67.56 56.3495 67.72C56.5202 67.8693 56.7228 67.944 56.9575 67.944C57.1922 67.944 57.3468 67.9333 57.4215 67.912C57.4962 67.88 57.5708 67.864 57.6455 67.864C57.7202 67.864 57.7788 67.9173 57.8215 68.024C57.8748 68.1307 57.9122 68.248 57.9335 68.376C57.9655 68.4933 57.9815 68.5733 57.9815 68.616C57.9815 68.7547 57.9122 68.8613 57.7735 68.936C57.6455 69 57.4908 69.0427 57.3095 69.064C57.1282 69.0853 56.9628 69.096 56.8135 69.096ZM62.4563 69.096C61.1336 69.096 60.1469 68.7493 59.4963 68.056C58.8563 67.3627 58.5363 66.3013 58.5363 64.872C58.5363 63.9227 58.6749 63.128 58.9523 62.488C59.2403 61.848 59.6616 61.3627 60.2163 61.032C60.7709 60.7013 61.4536 60.536 62.2643 60.536C63.0003 60.536 63.6083 60.696 64.0883 61.016C64.5789 61.336 64.9469 61.8053 65.1923 62.424C65.4376 63.0427 65.5603 63.8053 65.5603 64.712C65.5603 64.776 65.5283 64.8613 65.4643 64.968C65.4109 65.064 65.3416 65.1547 65.2563 65.24C65.1709 65.3253 65.0963 65.368 65.0323 65.368H59.9763C60.0403 66.2533 60.2696 66.904 60.6643 67.32C61.0589 67.736 61.6509 67.944 62.4403 67.944C62.9096 67.944 63.3043 67.8907 63.6243 67.784C63.9549 67.6667 64.2163 67.5547 64.4083 67.448C64.6003 67.3307 64.7229 67.272 64.7763 67.272C64.8509 67.272 64.9309 67.3253 65.0163 67.432C65.1016 67.5387 65.1763 67.656 65.2403 67.784C65.3043 67.912 65.3363 68.008 65.3363 68.072C65.3363 68.168 65.2616 68.2747 65.1123 68.392C64.9629 68.5093 64.7549 68.6213 64.4883 68.728C64.2323 68.8347 63.9283 68.9253 63.5763 69C63.2349 69.064 62.8616 69.096 62.4563 69.096ZM59.9763 64.216H64.1363C64.1363 63.3733 63.9763 62.744 63.6563 62.328C63.3363 61.9013 62.8563 61.688 62.2163 61.688C61.5229 61.688 60.9896 61.9013 60.6163 62.328C60.2429 62.744 60.0296 63.3733 59.9763 64.216Z" fill="white"/>
<defs>
<clipPath id="clip0_1_31">
<rect width="26" height="24" fill="white" transform="translate(29 18)"/>
</clipPath>
</defs>
</svg>
