<svg width="84" height="90" viewBox="0 0 84 90" fill="none" xmlns="http://www.w3.org/2000/svg">
<g clip-path="url(#clip0_294_6393)">
<path d="M53.749 19.3535H30.2511C29.7218 19.3535 29.2888 19.8039 29.2888 20.3544V36.4721C29.2888 37.0226 29.7218 37.473 30.2511 37.473H53.749C54.2783 37.473 54.7113 37.0226 54.7113 36.4721V20.3544C54.7113 19.8039 54.2783 19.3535 53.749 19.3535Z" fill="white"/>
<path d="M30.2511 37.4736H53.749C54.2783 37.4736 54.7113 37.0232 54.7113 36.4727V35.7354H29.2888V36.4727C29.2888 37.0265 29.7218 37.4736 30.2511 37.4736Z" fill="#E6E6E6"/>
<path d="M53.7491 18.0195H30.2511C29.013 18.0195 28.0059 19.0671 28.0059 20.3549V36.4726C28.0059 37.7604 29.013 38.808 30.2511 38.808H53.7491C54.9872 38.808 55.9943 37.7604 55.9943 36.4726V20.3549C55.9943 19.0671 54.9872 18.0195 53.7491 18.0195ZM54.7113 35.7353V36.4726C54.7113 37.0231 54.2783 37.4735 53.7491 37.4735H30.2511C29.7219 37.4735 29.2889 37.0231 29.2889 36.4726V20.3549C29.2889 19.8045 29.7219 19.3541 30.2511 19.3541H53.7491C54.2783 19.3541 54.7113 19.8045 54.7113 20.3549V35.7353ZM47.3245 41.9808H36.6757C36.3228 41.9808 36.0342 41.6806 36.0342 41.3136C36.0342 40.9466 36.3228 40.6463 36.6757 40.6463H47.3245C47.6773 40.6463 47.966 40.9466 47.966 41.3136C47.966 41.6806 47.6773 41.9808 47.3245 41.9808Z" fill="white"/>
<path d="M29.6545 35.0277C29.5679 35.0277 29.4813 34.991 29.4204 34.9209C29.3017 34.7841 29.3081 34.574 29.4396 34.4505L37.0253 27.124L40.4284 30.9974L48.7326 21.2988L54.6247 27.848C54.7466 27.9814 54.7402 28.195 54.6119 28.3184C54.4836 28.4452 54.2815 28.4385 54.1597 28.3051L48.7454 22.2864L40.4381 31.9917L36.9868 28.0648L29.8726 34.9376C29.8085 34.9977 29.7315 35.0277 29.6545 35.0277Z" fill="#1E4D98"/>
<path d="M30.5942 30.9978C30.5942 31.7305 30.8737 32.4331 31.3712 32.9512C31.8686 33.4692 32.5433 33.7603 33.2468 33.7603C33.9503 33.7603 34.625 33.4692 35.1225 32.9512C35.6199 32.4331 35.8994 31.7305 35.8994 30.9978C35.8994 30.2652 35.6199 29.5625 35.1225 29.0445C34.625 28.5264 33.9503 28.2354 33.2468 28.2354C32.5433 28.2354 31.8686 28.5264 31.3712 29.0445C30.8737 29.5625 30.5942 30.2652 30.5942 30.9978Z" fill="#D7E7FF"/>
<path d="M31.3447 30.998C31.3447 31.2578 31.3939 31.515 31.4895 31.7551C31.5851 31.9951 31.7252 32.2132 31.9018 32.3969C32.0784 32.5806 32.2881 32.7264 32.5189 32.8258C32.7496 32.9252 32.997 32.9764 33.2468 32.9764C33.4965 32.9764 33.7439 32.9252 33.9746 32.8258C34.2054 32.7264 34.4151 32.5806 34.5917 32.3969C34.7683 32.2132 34.9084 31.9951 35.004 31.7551C35.0996 31.515 35.1488 31.2578 35.1488 30.998C35.1488 30.4732 34.9484 29.97 34.5917 29.599C34.235 29.228 33.7512 29.0195 33.2468 29.0195C32.7423 29.0195 32.2585 29.228 31.9018 29.599C31.5451 29.97 31.3447 30.4732 31.3447 30.998Z" fill="#B5CFF4"/>
<path d="M32.2781 30.9972C32.2781 31.13 32.3031 31.2614 32.3518 31.3841C32.4005 31.5067 32.4718 31.6182 32.5618 31.712C32.6517 31.8059 32.7585 31.8804 32.876 31.9312C32.9936 31.982 33.1195 32.0081 33.2467 32.0081C33.3739 32.0081 33.4999 31.982 33.6174 31.9312C33.7349 31.8804 33.8417 31.8059 33.9317 31.712C34.0216 31.6182 34.093 31.5067 34.1417 31.3841C34.1903 31.2614 34.2154 31.13 34.2154 30.9972C34.2154 30.8645 34.1903 30.733 34.1417 30.6104C34.093 30.4877 34.0216 30.3763 33.9317 30.2824C33.8417 30.1885 33.7349 30.1141 33.6174 30.0633C33.4999 30.0125 33.3739 29.9863 33.2467 29.9863C33.1195 29.9863 32.9936 30.0125 32.876 30.0633C32.7585 30.1141 32.6517 30.1885 32.5618 30.2824C32.4718 30.3763 32.4005 30.4877 32.3518 30.6104C32.3031 30.733 32.2781 30.8645 32.2781 30.9972Z" fill="white"/>
<path d="M44.21 23.9246C44.21 24.2873 44.2786 24.6466 44.4119 24.9817C44.5452 25.3169 44.7406 25.6214 44.9869 25.8779C45.2332 26.1344 45.5256 26.3379 45.8474 26.4767C46.1693 26.6156 46.5142 26.687 46.8625 26.687C47.2109 26.687 47.5558 26.6156 47.8776 26.4767C48.1995 26.3379 48.4919 26.1344 48.7382 25.8779C48.9845 25.6214 49.1799 25.3169 49.3132 24.9817C49.4465 24.6466 49.5151 24.2873 49.5151 23.9246C49.5151 23.5618 49.4465 23.2026 49.3132 22.8674C49.1799 22.5323 48.9845 22.2277 48.7382 21.9712C48.4919 21.7147 48.1995 21.5112 47.8776 21.3724C47.5558 21.2336 47.2109 21.1621 46.8625 21.1621C46.5142 21.1621 46.1693 21.2336 45.8474 21.3724C45.5256 21.5112 45.2332 21.7147 44.9869 21.9712C44.7406 22.2277 44.5452 22.5323 44.4119 22.8674C44.2786 23.2026 44.21 23.5618 44.21 23.9246Z" fill="#D7E7FF"/>
<path d="M44.9604 23.9247C44.9604 24.4494 45.1608 24.9526 45.5175 25.3237C45.8742 25.6947 46.358 25.9031 46.8625 25.9031C47.3669 25.9031 47.8507 25.6947 48.2074 25.3237C48.5641 24.9526 48.7645 24.4494 48.7645 23.9247C48.7645 23.4 48.5641 22.8968 48.2074 22.5258C47.8507 22.1547 47.3669 21.9463 46.8625 21.9463C46.358 21.9463 45.8742 22.1547 45.5175 22.5258C45.1608 22.8968 44.9604 23.4 44.9604 23.9247Z" fill="#B5CFF4"/>
<path d="M45.8938 23.925C45.8938 24.1931 45.9959 24.4502 46.1775 24.6398C46.3592 24.8294 46.6056 24.9359 46.8625 24.9359C47.1194 24.9359 47.3657 24.8294 47.5474 24.6398C47.7291 24.4502 47.8311 24.1931 47.8311 23.925C47.8311 23.6569 47.7291 23.3997 47.5474 23.2101C47.3657 23.0206 47.1194 22.9141 46.8625 22.9141C46.6056 22.9141 46.3592 23.0206 46.1775 23.2101C45.9959 23.3997 45.8938 23.6569 45.8938 23.925Z" fill="white"/>
<path d="M48.6492 30.9211C48.6492 31.3317 48.8056 31.7254 49.0841 32.0157C49.3626 32.306 49.7404 32.4691 50.1342 32.4691C50.5281 32.4691 50.9058 32.306 51.1843 32.0157C51.4628 31.7254 51.6193 31.3317 51.6193 30.9211C51.6193 30.5105 51.4628 30.1168 51.1843 29.8265C50.9058 29.5361 50.5281 29.373 50.1342 29.373C49.7404 29.373 49.3626 29.5361 49.0841 29.8265C48.8056 30.1168 48.6492 30.5105 48.6492 30.9211Z" fill="#D7E7FF"/>
<path d="M49.0693 30.9211C49.0693 31.2149 49.1815 31.4966 49.3812 31.7044C49.5809 31.9121 49.8518 32.0288 50.1342 32.0288C50.4166 32.0288 50.6875 31.9121 50.8872 31.7044C51.0869 31.4966 51.1991 31.2149 51.1991 30.9211C51.1991 30.6274 51.0869 30.3456 50.8872 30.1379C50.6875 29.9302 50.4166 29.8135 50.1342 29.8135C49.8518 29.8135 49.5809 29.9302 49.3812 30.1379C49.1815 30.3456 49.0693 30.6274 49.0693 30.9211Z" fill="#B5CFF4"/>
<path d="M49.592 30.9207C49.592 31.0711 49.6492 31.2154 49.7508 31.3217C49.8525 31.4281 49.9903 31.4879 50.1341 31.4879C50.2779 31.4879 50.4157 31.4281 50.5174 31.3217C50.6191 31.2154 50.6762 31.0711 50.6762 30.9207C50.6762 30.7703 50.6191 30.626 50.5174 30.5196C50.4157 30.4133 50.2779 30.3535 50.1341 30.3535C49.9903 30.3535 49.8525 30.4133 49.7508 30.5196C49.6492 30.626 49.592 30.7703 49.592 30.9207Z" fill="white"/>
<path d="M39.5879 36.9433H34.4046C34.2442 36.9433 34.1159 36.8099 34.1159 36.643C34.1159 36.4762 34.2442 36.3428 34.4046 36.3428H39.5879C39.7482 36.3428 39.8765 36.4762 39.8765 36.643C39.8765 36.8065 39.745 36.9433 39.5879 36.9433ZM32.6533 36.9433H31.8033C31.6429 36.9433 31.5146 36.8099 31.5146 36.643C31.5146 36.4762 31.6429 36.3428 31.8033 36.3428H32.6533C32.8137 36.3428 32.942 36.4762 32.942 36.643C32.942 36.8065 32.8105 36.9433 32.6533 36.9433Z" fill="white"/>
</g>
<path d="M31.404 69.096C30.7213 69.096 30.1133 69.016 29.58 68.856C29.0467 68.696 28.652 68.52 28.396 68.328C28.1933 68.1787 28.092 68.0453 28.092 67.928C28.092 67.8427 28.124 67.7307 28.188 67.592C28.2627 67.4533 28.3427 67.3307 28.428 67.224C28.524 67.1173 28.5987 67.064 28.652 67.064C28.684 67.064 28.7267 67.08 28.78 67.112C28.844 67.1333 28.9133 67.1707 28.988 67.224C29.2013 67.3413 29.5107 67.48 29.916 67.64C30.3213 67.8 30.8173 67.88 31.404 67.88C31.8093 67.88 32.1667 67.8053 32.476 67.656C32.796 67.496 33.0467 67.272 33.228 66.984C33.4093 66.696 33.5 66.3653 33.5 65.992C33.5 65.5653 33.3827 65.224 33.148 64.968C32.924 64.7013 32.6253 64.4827 32.252 64.312C31.8893 64.1413 31.5 63.976 31.084 63.816C30.7427 63.688 30.4067 63.5493 30.076 63.4C29.7453 63.24 29.4467 63.048 29.18 62.824C28.9133 62.6 28.7 62.3173 28.54 61.976C28.38 61.624 28.3 61.1867 28.3 60.664C28.3 60.088 28.444 59.576 28.732 59.128C29.0307 58.68 29.4467 58.3333 29.98 58.088C30.5133 57.832 31.1373 57.704 31.852 57.704C32.076 57.704 32.3267 57.7253 32.604 57.768C32.892 57.8107 33.1693 57.8747 33.436 57.96C33.7133 58.0453 33.9373 58.1467 34.108 58.264C34.3213 58.392 34.428 58.5307 34.428 58.68C34.428 58.7547 34.396 58.8613 34.332 59C34.268 59.1387 34.1933 59.2613 34.108 59.368C34.0333 59.4747 33.9693 59.528 33.916 59.528C33.8733 59.528 33.8147 59.512 33.74 59.48C33.676 59.4373 33.5907 59.3893 33.484 59.336C33.3133 59.2507 33.0947 59.16 32.828 59.064C32.5613 58.968 32.2253 58.92 31.82 58.92C31.4253 58.92 31.068 58.9893 30.748 59.128C30.4387 59.2667 30.1933 59.4693 30.012 59.736C29.8413 60.0027 29.756 60.3333 29.756 60.728C29.756 61.112 29.8573 61.416 30.06 61.64C30.2627 61.864 30.5293 62.0507 30.86 62.2C31.1907 62.3387 31.548 62.4827 31.932 62.632C32.284 62.7707 32.636 62.9253 32.988 63.096C33.3507 63.256 33.6813 63.4587 33.98 63.704C34.2787 63.9493 34.5133 64.2587 34.684 64.632C34.8653 64.9947 34.956 65.448 34.956 65.992C34.956 66.472 34.8707 66.904 34.7 67.288C34.54 67.672 34.3 67.9973 33.98 68.264C33.6707 68.5307 33.2973 68.7387 32.86 68.888C32.4333 69.0267 31.948 69.096 31.404 69.096ZM37.548 69C37.228 69 37.068 68.84 37.068 68.52V58.28C37.068 57.96 37.228 57.8 37.548 57.8H43.132C43.3453 57.8 43.452 57.96 43.452 58.28V58.536C43.452 58.856 43.3453 59.016 43.132 59.016H38.476V62.664H42.652C42.8653 62.664 42.972 62.824 42.972 63.144V63.4C42.972 63.72 42.8653 63.88 42.652 63.88H38.476V67.784H43.148C43.3613 67.784 43.468 67.944 43.468 68.264V68.52C43.468 68.84 43.3613 69 43.148 69H37.548ZM50.0744 69.096C48.4744 69.096 47.253 68.6107 46.4104 67.64C45.5677 66.6587 45.1464 65.2347 45.1464 63.368C45.1464 61.4907 45.5677 60.0773 46.4104 59.128C47.253 58.1787 48.4744 57.704 50.0744 57.704C51.685 57.704 52.9117 58.1787 53.7544 59.128C54.597 60.0773 55.0184 61.4907 55.0184 63.368C55.0184 65.2347 54.597 66.6587 53.7544 67.64C52.9117 68.6107 51.685 69.096 50.0744 69.096ZM50.0744 67.88C51.205 67.88 52.069 67.496 52.6664 66.728C53.2637 65.96 53.5624 64.84 53.5624 63.368C53.5624 61.896 53.2637 60.7867 52.6664 60.04C52.069 59.2933 51.205 58.92 50.0744 58.92C48.9437 58.92 48.0797 59.2933 47.4824 60.04C46.8957 60.7867 46.6024 61.896 46.6024 63.368C46.6024 64.84 46.8957 65.96 47.4824 66.728C48.0797 67.496 48.9437 67.88 50.0744 67.88Z" fill="#F4F4F4"/>
<defs>
<clipPath id="clip0_294_6393">
<rect width="28" height="24" fill="white" transform="translate(28 18)"/>
</clipPath>
</defs>
</svg>
