<svg width="84" height="90" viewBox="0 0 84 90" fill="none" xmlns="http://www.w3.org/2000/svg">
<g clip-path="url(#clip0_294_6636)">
<path d="M51.3719 20.5501H47.1144C47.0207 20.1766 46.9448 19.8121 46.8957 19.5061C46.8691 19.3414 46.7976 19.1875 46.6892 19.0614C46.5809 18.9354 46.4399 18.8422 46.282 18.7923C46.1242 18.7423 45.9557 18.7376 45.7953 18.7786C45.635 18.8196 45.4891 18.9048 45.3739 19.0246C44.9358 19.4868 44.5524 19.9987 44.2314 20.5501H40.2149H40.1435L38.6128 19.0156C38.5299 18.9319 38.4314 18.8655 38.3231 18.8202C38.2147 18.7749 38.0986 18.7516 37.9813 18.7516C37.864 18.7516 37.7478 18.7749 37.6395 18.8202C37.5311 18.8655 37.4327 18.9319 37.3498 19.0156L35.828 20.5501H32.6281C31.918 20.5501 31.2369 20.8345 30.7347 21.3409C30.2326 21.8472 29.9504 22.534 29.9504 23.2501V34.0501V35.8501C29.9504 36.5662 30.2326 37.2529 30.7347 37.7593C31.2369 38.2656 31.918 38.5501 32.6281 38.5501H38.6931C38.5454 38.9861 38.2973 39.3807 37.9691 39.7014C37.641 40.0221 37.2422 40.2598 36.8053 40.3951C36.6031 40.4621 36.4313 40.5998 36.3208 40.7833C36.2104 40.9668 36.1687 41.184 36.2032 41.3958C36.2376 41.6077 36.346 41.8001 36.5088 41.9384C36.6716 42.0767 36.8781 42.1518 37.0909 42.1501H46.9091C47.1102 42.1499 47.3053 42.0812 47.4629 41.9552C47.6204 41.8292 47.7311 41.6532 47.7771 41.4558C47.8231 41.2584 47.8016 41.0512 47.7161 40.8676C47.6307 40.6841 47.4863 40.535 47.3063 40.4446C46.4614 40.06 45.7763 39.3899 45.3694 38.5501H51.3719C52.0821 38.5501 52.7632 38.2656 53.2653 37.7593C53.7675 37.2529 54.0496 36.5662 54.0496 35.8501V23.2501C54.0496 22.534 53.7675 21.8472 53.2653 21.3409C52.7632 20.8345 52.0821 20.5501 51.3719 20.5501ZM51.3719 22.3501C51.6087 22.3501 51.8357 22.4449 52.0031 22.6137C52.1705 22.7825 52.2645 23.0114 52.2645 23.2501V33.1501H49.1405C49.2165 31.2236 48.9443 29.2993 48.3372 27.4711C48.8435 26.7451 49.0826 25.8637 49.0133 24.9789C48.9441 24.0942 48.5708 23.2615 47.9579 22.6246C47.882 22.5411 47.8161 22.449 47.7615 22.3501H51.3719ZM44.6777 33.1501C44.5957 31.3587 44.8563 29.5681 45.4453 27.8761C45.6222 27.7863 45.8187 27.743 46.0166 27.7501C46.2108 27.7464 46.4032 27.788 46.5789 27.8716C47.1702 29.5648 47.4338 31.3567 47.3554 33.1501H44.6777ZM45.5703 21.7336C45.7745 22.518 46.1445 23.2487 46.6547 23.8756C46.932 24.1704 47.1164 24.5415 47.1847 24.9419C47.253 25.3424 47.2022 25.7543 47.0385 26.1256C46.7103 26.0089 46.3646 25.9496 46.0166 25.9501C45.7378 25.9488 45.4601 25.9851 45.1909 26.0581C44.9691 25.3475 44.8884 24.5998 44.9535 23.8577C45.0186 23.1157 45.2282 22.3939 45.5703 21.7336ZM43.7494 27.3406C43.1061 29.206 42.8155 31.1766 42.8926 33.1501H41.1075V22.3501H43.4415C42.9869 24.0014 43.0953 25.7588 43.7494 27.3406ZM36.6447 25.0501H39.3223V33.1501H36.6447V25.0501ZM37.9835 20.9191L39.3223 22.2691V23.2501H36.6447V22.2736L36.8276 22.0891L37.9835 20.9191ZM32.6281 22.3501H34.8595V33.1501H31.7356V23.2501C31.7356 23.0114 31.8296 22.7825 31.997 22.6137C32.1644 22.4449 32.3914 22.3501 32.6281 22.3501ZM44.3653 40.3501H39.7686C40.1476 39.8082 40.4174 39.1967 40.563 38.5501H43.4906C43.6644 39.2039 43.9664 39.8159 44.3787 40.3501H44.3653ZM51.3719 36.7501H32.6281C32.3914 36.7501 32.1644 36.6553 31.997 36.4865C31.8296 36.3177 31.7356 36.0888 31.7356 35.8501V34.9501H52.2645V35.8501C52.2645 36.0888 52.1705 36.3177 52.0031 36.4865C51.8357 36.6553 51.6087 36.7501 51.3719 36.7501Z" fill="white"/>
</g>
<path d="M21.696 69.096C20.2773 69.096 19.1947 68.7707 18.448 68.12C17.7013 67.4693 17.328 66.568 17.328 65.416V58.12C17.328 57.8853 17.5413 57.768 17.968 57.768H18.096C18.5227 57.768 18.736 57.8853 18.736 58.12V65.464C18.736 65.9333 18.864 66.3547 19.12 66.728C19.376 67.0907 19.728 67.3733 20.176 67.576C20.624 67.7787 21.1307 67.88 21.696 67.88C22.272 67.88 22.7787 67.7787 23.216 67.576C23.664 67.3627 24.016 67.0747 24.272 66.712C24.528 66.3493 24.656 65.9333 24.656 65.464V58.12C24.656 57.8853 24.8693 57.768 25.296 57.768H25.424C25.8507 57.768 26.064 57.8853 26.064 58.12V65.416C26.064 66.568 25.6853 67.4693 24.928 68.12C24.1813 68.7707 23.104 69.096 21.696 69.096ZM29.5826 69.032C29.156 69.032 28.9426 68.9147 28.9426 68.68V58.12C28.9426 57.8853 29.156 57.768 29.5826 57.768H29.7106C30.1373 57.768 30.3506 57.8853 30.3506 58.12V68.68C30.3506 68.9147 30.1373 69.032 29.7106 69.032H29.5826ZM36.5976 70.216C36.459 70.216 36.3523 70.2 36.2776 70.168C36.2136 70.136 36.1816 70.072 36.1816 69.976C36.1816 69.9227 36.1976 69.8533 36.2296 69.768C36.2616 69.6827 36.2936 69.6027 36.3256 69.528L41.0776 58.136C41.1416 57.976 41.2163 57.8747 41.3016 57.832C41.387 57.7787 41.515 57.752 41.6856 57.752H41.7496C41.899 57.752 41.995 57.7733 42.0376 57.816C42.0803 57.8587 42.1016 57.9227 42.1016 58.008C42.1016 58.0507 42.0803 58.1253 42.0376 58.232C42.0056 58.3387 41.963 58.456 41.9096 58.584L37.1576 69.976C37.115 70.072 37.0563 70.136 36.9816 70.168C36.907 70.2 36.8003 70.216 36.6616 70.216H36.5976ZM52.0554 69.096C50.6367 69.096 49.554 68.7707 48.8074 68.12C48.0607 67.4693 47.6874 66.568 47.6874 65.416V58.12C47.6874 57.8853 47.9007 57.768 48.3274 57.768H48.4554C48.882 57.768 49.0954 57.8853 49.0954 58.12V65.464C49.0954 65.9333 49.2234 66.3547 49.4794 66.728C49.7354 67.0907 50.0874 67.3733 50.5354 67.576C50.9834 67.7787 51.49 67.88 52.0554 67.88C52.6314 67.88 53.138 67.7787 53.5754 67.576C54.0234 67.3627 54.3754 67.0747 54.6314 66.712C54.8874 66.3493 55.0154 65.9333 55.0154 65.464V58.12C55.0154 57.8853 55.2287 57.768 55.6554 57.768H55.7834C56.21 57.768 56.4234 57.8853 56.4234 58.12V65.416C56.4234 66.568 56.0447 67.4693 55.2874 68.12C54.5407 68.7707 53.4634 69.096 52.0554 69.096ZM58.806 69.032C58.5393 69.032 58.3473 69.0107 58.23 68.968C58.1233 68.9253 58.07 68.856 58.07 68.76C58.07 68.6853 58.1127 68.5893 58.198 68.472L61.782 63.16L58.582 58.328C58.4967 58.2107 58.454 58.1147 58.454 58.04C58.454 57.9547 58.5073 57.8907 58.614 57.848C58.7313 57.7947 58.9233 57.768 59.19 57.768H59.414C59.5847 57.768 59.7233 57.784 59.83 57.816C59.9473 57.848 60.038 57.912 60.102 58.008L62.662 61.864L65.302 57.992C65.3553 57.9067 65.446 57.848 65.574 57.816C65.7127 57.784 65.8513 57.768 65.99 57.768H66.086C66.3527 57.768 66.5393 57.7893 66.646 57.832C66.7633 57.8747 66.822 57.944 66.822 58.04C66.822 58.0827 66.806 58.1307 66.774 58.184C66.7527 58.2267 66.726 58.2747 66.694 58.328L63.494 63.08L67.094 68.472C67.1793 68.5893 67.222 68.6853 67.222 68.76C67.222 68.8453 67.1687 68.9147 67.062 68.968C66.9553 69.0107 66.7633 69.032 66.486 69.032H66.23C66.0593 69.032 65.9153 69.016 65.798 68.984C65.6913 68.952 65.606 68.888 65.542 68.792L62.598 64.392L59.622 68.808C59.5687 68.8933 59.478 68.952 59.35 68.984C59.222 69.016 59.0833 69.032 58.934 69.032H58.806Z" fill="#F4F4F4"/>
<defs>
<clipPath id="clip0_294_6636">
<rect width="24" height="24" fill="white" transform="translate(30 18)"/>
</clipPath>
</defs>
</svg>
