<svg width="84" height="90" viewBox="0 0 84 90" fill="none" xmlns="http://www.w3.org/2000/svg">
<g clip-path="url(#clip0_294_6478)">
<path d="M44.4229 40.1387H34.9805C34.667 40.1387 34.4121 40.4445 34.4121 40.8207C34.4121 41.1969 34.667 41.5027 34.9805 41.5027H44.4229C44.7363 41.5027 44.9912 41.1969 44.9912 40.8207C44.9912 40.441 44.7363 40.1387 44.4229 40.1387Z" fill="white"/>
<path d="M53.7451 39.1191V40.4902H55.3594C55.1221 39.6922 54.4893 39.1191 53.7451 39.1191Z" fill="#E6E6E6"/>
<path d="M50.8945 35.7625V20.2691C50.8945 19.7031 50.5107 19.2461 50.042 19.2461H29.3613C28.8896 19.2461 28.5088 19.7066 28.5088 20.2691V35.7625C28.5088 36.3285 28.8926 36.7855 29.3613 36.7855H50.042C50.5137 36.7891 50.8945 36.3285 50.8945 35.7625ZM49.6084 34.2859C49.6084 34.8484 49.2246 35.309 48.7559 35.309H30.6504C30.1816 35.309 29.7979 34.8484 29.7979 34.2859V21.7492C29.7979 21.1867 30.1816 20.7262 30.6504 20.7262H48.7559C49.2246 20.7262 49.6084 21.1867 49.6084 21.7492V34.2859Z" fill="white"/>
<path d="M48.7559 20.7256H30.6504C30.1816 20.7256 29.7979 21.1861 29.7979 21.7486V34.2854C29.7979 34.8479 30.1816 35.3084 30.6504 35.3084H48.7559C49.2246 35.3084 49.6084 34.8479 49.6084 34.2854V21.7486C49.6084 21.1861 49.2246 20.7256 48.7559 20.7256ZM33.4248 21.8576C33.4248 21.8014 33.4629 21.7592 33.5068 21.7592H35.3027C35.3496 21.7592 35.3848 21.8049 35.3848 21.8576V22.4729C35.3848 22.5291 35.3467 22.5713 35.3027 22.5713H33.5068C33.46 22.5713 33.4248 22.5256 33.4248 22.4729V21.8576ZM32.5371 21.7346C32.7305 21.7346 32.8857 21.9209 32.8857 22.1529C32.8857 22.385 32.7305 22.5713 32.5371 22.5713C32.3438 22.5713 32.1885 22.385 32.1885 22.1529C32.1885 21.9209 32.3467 21.7346 32.5371 21.7346ZM31.3945 21.7346C31.5879 21.7346 31.7432 21.9209 31.7432 22.1529C31.7432 22.385 31.5879 22.5713 31.3945 22.5713C31.2012 22.5713 31.0459 22.385 31.0459 22.1529C31.0459 21.9209 31.2012 21.7346 31.3945 21.7346ZM38.3467 28.1225C38.3467 30.5061 36.7295 32.4467 34.7432 32.4467C32.7568 32.4467 31.1396 30.5061 31.1396 28.1225C31.1396 25.7389 32.7568 23.7982 34.7432 23.7982H35.0273V27.7814H38.3467V28.1225ZM35.707 26.7619V23.4326C37.2393 23.4326 38.4814 24.9232 38.4814 26.7619H35.707ZM46.6523 31.9967H42.5303C42.3721 31.9967 42.2461 31.8455 42.2461 31.6557C42.2461 31.4658 42.3721 31.3146 42.5303 31.3146H46.6523C46.8105 31.3146 46.9365 31.4658 46.9365 31.6557C46.9365 31.842 46.8105 31.9967 46.6523 31.9967ZM46.6523 29.4197H42.3867C42.2285 29.4197 42.1025 29.2686 42.1025 29.0787C42.1025 28.8889 42.2285 28.7377 42.3867 28.7377H46.6523C46.8105 28.7377 46.9365 28.8889 46.9365 29.0787C46.9365 29.2686 46.8105 29.4197 46.6523 29.4197ZM46.6523 26.8393H40.5117C40.3535 26.8393 40.2275 26.6881 40.2275 26.4982C40.2275 26.3084 40.3535 26.1572 40.5117 26.1572H46.6553C46.8135 26.1572 46.9395 26.3084 46.9395 26.4982C46.9395 26.6881 46.8105 26.8393 46.6523 26.8393ZM46.6523 24.2623H40.5117C40.3535 24.2623 40.2275 24.1111 40.2275 23.9213C40.2275 23.7314 40.3535 23.5803 40.5117 23.5803H46.6553C46.8135 23.5803 46.9395 23.7314 46.9395 23.9213C46.9395 24.1111 46.8105 24.2623 46.6523 24.2623Z" fill="#E6E6E6"/>
<path d="M34.459 24.498C32.918 24.6703 31.708 26.2313 31.708 28.1227C31.708 30.1301 33.0703 31.7648 34.7432 31.7648C36.3193 31.7648 37.6201 30.3129 37.7637 28.4637H34.459V24.498Z" fill="white"/>
<path d="M35.0273 23.7988H34.7432C32.7568 23.7988 31.1396 25.7395 31.1396 28.123C31.1396 30.5066 32.7568 32.4473 34.7432 32.4473C36.7295 32.4473 38.3467 30.5066 38.3467 28.123V27.782H35.0273V23.7988ZM37.7637 28.4676C37.6201 30.3168 36.3193 31.7687 34.7432 31.7687C33.0703 31.7687 31.708 30.134 31.708 28.1266C31.708 26.2352 32.918 24.6742 34.459 24.502V28.4676H37.7637Z" fill="#4F4F4F"/>
<path d="M35.707 23.4326V26.7619H38.4814C38.4814 24.9232 37.2393 23.4326 35.707 23.4326Z" fill="#4F4F4F"/>
<path d="M31.0459 22.1527C31.0459 22.2637 31.0826 22.3701 31.148 22.4486C31.2134 22.527 31.3021 22.5711 31.3945 22.5711C31.487 22.5711 31.5757 22.527 31.6411 22.4486C31.7064 22.3701 31.7432 22.2637 31.7432 22.1527C31.7432 22.0418 31.7064 21.9354 31.6411 21.8569C31.5757 21.7785 31.487 21.7344 31.3945 21.7344C31.3021 21.7344 31.2134 21.7785 31.148 21.8569C31.0826 21.9354 31.0459 22.0418 31.0459 22.1527Z" fill="white"/>
<path d="M32.1885 22.1527C32.1885 22.2637 32.2252 22.3701 32.2906 22.4486C32.356 22.527 32.4446 22.5711 32.5371 22.5711C32.6296 22.5711 32.7182 22.527 32.7836 22.4486C32.849 22.3701 32.8857 22.2637 32.8857 22.1527C32.8857 22.0418 32.849 21.9354 32.7836 21.8569C32.7182 21.7785 32.6296 21.7344 32.5371 21.7344C32.4446 21.7344 32.356 21.7785 32.2906 21.8569C32.2252 21.9354 32.1885 22.0418 32.1885 22.1527Z" fill="white"/>
<path d="M33.5068 22.5719H35.3027C35.3496 22.5719 35.3848 22.5262 35.3848 22.4734V21.8582C35.3848 21.802 35.3467 21.7598 35.3027 21.7598H33.5068C33.46 21.7598 33.4248 21.8055 33.4248 21.8582V22.4734C33.4248 22.5297 33.4629 22.5719 33.5068 22.5719Z" fill="white"/>
<path d="M53.7451 37.7521C52.3682 37.7521 51.2168 38.9299 50.9531 40.4873H47.5635C47.2207 40.4873 46.9717 40.4064 46.8838 40.2658C46.8252 40.1709 46.8252 40.0197 46.8252 39.9494V38.1529H50.0449C51.1436 38.1529 52.0342 37.0807 52.0342 35.7658V20.2689C52.0342 18.9506 51.1406 17.8818 50.0449 17.8818H29.3613C28.2627 17.8818 27.3721 18.9541 27.3721 20.2689V35.7623C27.3721 37.0807 28.2656 38.1494 29.3613 38.1494H45.6855V39.9494C45.6855 40.1182 45.6855 40.6279 45.9756 41.0885C46.2949 41.5947 46.8281 41.8514 47.5635 41.8514H56.5928V41.1693C56.5928 39.285 55.3154 37.7521 53.7451 37.7521ZM29.3613 36.7889C28.8896 36.7889 28.5088 36.3283 28.5088 35.7658V20.2689C28.5088 19.7029 28.8926 19.2459 29.3613 19.2459H50.042C50.5137 19.2459 50.8945 19.7064 50.8945 20.2689V35.7623C50.8945 36.3283 50.5107 36.7854 50.042 36.7854H29.3613V36.7889ZM53.7451 40.4873H52.1309C52.3652 39.6893 53.001 39.1162 53.7451 39.1162C54.4893 39.1162 55.125 39.6893 55.3594 40.4873H53.7451Z" fill="white"/>
<path d="M46.6523 23.5801H40.5117C40.3535 23.5801 40.2275 23.7313 40.2275 23.9211C40.2275 24.1109 40.3535 24.2621 40.5117 24.2621H46.6553C46.8135 24.2621 46.9395 24.1109 46.9395 23.9211C46.9395 23.7313 46.8105 23.5801 46.6523 23.5801Z" fill="#4F4F4F"/>
<path d="M46.6523 26.1572H40.5117C40.3535 26.1572 40.2275 26.3084 40.2275 26.4982C40.2275 26.6881 40.3535 26.8393 40.5117 26.8393H46.6553C46.8135 26.8393 46.9395 26.6881 46.9395 26.4982C46.9395 26.3084 46.8105 26.1572 46.6523 26.1572ZM46.6523 28.7377H42.3867C42.2285 28.7377 42.1025 28.8889 42.1025 29.0787C42.1025 29.2686 42.2285 29.4197 42.3867 29.4197H46.6523C46.8105 29.4197 46.9365 29.2686 46.9365 29.0787C46.9365 28.8889 46.8105 28.7377 46.6523 28.7377Z" fill="#06F3FF"/>
<path d="M46.6523 31.3145H42.5303C42.3721 31.3145 42.2461 31.4656 42.2461 31.6555C42.2461 31.8453 42.3721 31.9965 42.5303 31.9965H46.6523C46.8105 31.9965 46.9365 31.8453 46.9365 31.6555C46.9365 31.4656 46.8105 31.3145 46.6523 31.3145Z" fill="#4F4F4F"/>
</g>
<path d="M17.388 69.032C17.228 69.032 17.084 69.016 16.956 68.984C16.8387 68.9413 16.7693 68.872 16.748 68.776L14.012 58.264C14.0013 58.232 13.9907 58.1947 13.98 58.152C13.9693 58.1093 13.964 58.072 13.964 58.04C13.964 57.8587 14.1933 57.768 14.652 57.768H14.812C14.972 57.768 15.1107 57.7893 15.228 57.832C15.356 57.864 15.4307 57.928 15.452 58.024L17.324 65.32C17.388 65.544 17.4467 65.7893 17.5 66.056C17.5533 66.312 17.6013 66.5573 17.644 66.792C17.6867 67.0267 17.7133 67.224 17.724 67.384H17.788C17.8307 67.2133 17.868 67.0427 17.9 66.872C17.9427 66.7013 17.9853 66.5307 18.028 66.36C18.0707 66.1893 18.1133 66.0187 18.156 65.848L20.092 58.04C20.1133 57.9333 20.1827 57.864 20.3 57.832C20.4173 57.7893 20.556 57.768 20.716 57.768H20.972C21.132 57.768 21.2707 57.7893 21.388 57.832C21.5053 57.864 21.5747 57.9333 21.596 58.04L23.436 65.32C23.5 65.544 23.5533 65.784 23.596 66.04C23.6493 66.296 23.6973 66.5413 23.74 66.776C23.7827 67.0107 23.8093 67.2133 23.82 67.384H23.884C23.9267 67.2133 23.964 67.032 23.996 66.84C24.0387 66.648 24.0813 66.4667 24.124 66.296C24.1667 66.1253 24.204 65.9813 24.236 65.864L26.172 58.024C26.1933 57.928 26.2627 57.864 26.38 57.832C26.508 57.7893 26.652 57.768 26.812 57.768H26.908C27.3667 57.768 27.596 57.8587 27.596 58.04C27.596 58.0507 27.5907 58.0827 27.58 58.136C27.5693 58.1893 27.5587 58.232 27.548 58.264L24.78 68.776C24.7587 68.872 24.684 68.9413 24.556 68.984C24.4387 69.016 24.3 69.032 24.14 69.032H23.484C23.324 69.032 23.18 69.016 23.052 68.984C22.9347 68.9413 22.8653 68.872 22.844 68.776L21.324 63.096C21.2067 62.6587 21.0947 62.1627 20.988 61.608C20.892 61.0533 20.828 60.5787 20.796 60.184H20.732C20.7 60.568 20.6467 60.9893 20.572 61.448C20.508 61.896 20.4333 62.264 20.348 62.552L18.684 68.776C18.6627 68.872 18.588 68.9413 18.46 68.984C18.3427 69.016 18.204 69.032 18.044 69.032H17.388ZM32.2219 69.096C30.8992 69.096 29.9125 68.7493 29.2619 68.056C28.6219 67.3627 28.3019 66.3013 28.3019 64.872C28.3019 63.9227 28.4405 63.128 28.7179 62.488C29.0059 61.848 29.4272 61.3627 29.9819 61.032C30.5365 60.7013 31.2192 60.536 32.0299 60.536C32.7659 60.536 33.3739 60.696 33.8539 61.016C34.3445 61.336 34.7125 61.8053 34.9579 62.424C35.2032 63.0427 35.3259 63.8053 35.3259 64.712C35.3259 64.776 35.2939 64.8613 35.2299 64.968C35.1765 65.064 35.1072 65.1547 35.0219 65.24C34.9365 65.3253 34.8619 65.368 34.7979 65.368H29.7419C29.8059 66.2533 30.0352 66.904 30.4299 67.32C30.8245 67.736 31.4165 67.944 32.2059 67.944C32.6752 67.944 33.0699 67.8907 33.3899 67.784C33.7205 67.6667 33.9819 67.5547 34.1739 67.448C34.3659 67.3307 34.4885 67.272 34.5419 67.272C34.6165 67.272 34.6965 67.3253 34.7819 67.432C34.8672 67.5387 34.9419 67.656 35.0059 67.784C35.0699 67.912 35.1019 68.008 35.1019 68.072C35.1019 68.168 35.0272 68.2747 34.8779 68.392C34.7285 68.5093 34.5205 68.6213 34.2539 68.728C33.9979 68.8347 33.6939 68.9253 33.3419 69C33.0005 69.064 32.6272 69.096 32.2219 69.096ZM29.7419 64.216H33.9019C33.9019 63.3733 33.7419 62.744 33.4219 62.328C33.1019 61.9013 32.6219 61.688 31.9819 61.688C31.2885 61.688 30.7552 61.9013 30.3819 62.328C30.0085 62.744 29.7952 63.3733 29.7419 64.216ZM41.1829 69.096C40.7242 69.096 40.2815 69 39.8549 68.808C39.4389 68.6053 39.0335 68.3013 38.6389 67.896C38.5749 68.312 38.4895 68.6267 38.3829 68.84C38.3509 68.9147 38.2975 68.968 38.2229 69C38.1589 69.0213 38.0682 69.032 37.9509 69.032H37.8869C37.5669 69.032 37.4069 68.9147 37.4069 68.68V57.32C37.4069 57.0853 37.6202 56.968 38.0469 56.968H38.1109C38.5375 56.968 38.7509 57.0853 38.7509 57.32V61.352C39.0602 61.1067 39.3962 60.9093 39.7589 60.76C40.1215 60.6107 40.5482 60.536 41.0389 60.536C41.9882 60.536 42.7669 60.904 43.3749 61.64C43.9829 62.3653 44.2869 63.4213 44.2869 64.808C44.2869 65.64 44.1589 66.3813 43.9029 67.032C43.6575 67.672 43.3002 68.1787 42.8309 68.552C42.3722 68.9147 41.8229 69.096 41.1829 69.096ZM40.9109 67.928C41.5402 67.928 42.0255 67.6507 42.3669 67.096C42.7082 66.5307 42.8789 65.7307 42.8789 64.696C42.8789 63.7467 42.6975 63.016 42.3349 62.504C41.9829 61.9813 41.4495 61.72 40.7349 61.72C40.3935 61.72 40.0469 61.7787 39.6949 61.896C39.3535 62.0133 39.0389 62.1947 38.7509 62.44V66.824C39.0815 67.1867 39.4335 67.464 39.8069 67.656C40.1909 67.8373 40.5589 67.928 40.9109 67.928ZM48.3243 69.144C47.8443 69.144 47.4123 69.0853 47.0283 68.968C46.6443 68.8507 46.3403 68.712 46.1163 68.552C45.8923 68.392 45.7803 68.2533 45.7803 68.136C45.7803 68.072 45.8123 67.976 45.8763 67.848C45.9403 67.72 46.0149 67.6027 46.1003 67.496C46.1856 67.3893 46.2656 67.336 46.3403 67.336C46.3829 67.336 46.4789 67.3893 46.6283 67.496C46.7776 67.6027 46.9856 67.7093 47.2523 67.816C47.5296 67.9227 47.8549 67.976 48.2283 67.976C49.2736 67.976 49.7963 67.5813 49.7963 66.792C49.7963 66.3653 49.6416 66.056 49.3323 65.864C49.0336 65.6613 48.6549 65.4853 48.1963 65.336C47.8229 65.208 47.4656 65.0587 47.1243 64.888C46.7829 64.7067 46.5056 64.456 46.2923 64.136C46.0789 63.816 45.9723 63.384 45.9723 62.84C45.9723 62.392 46.0843 61.992 46.3083 61.64C46.5429 61.288 46.8576 61.016 47.2523 60.824C47.6576 60.6213 48.1163 60.52 48.6283 60.52C48.9909 60.52 49.3323 60.552 49.6523 60.616C49.9723 60.68 50.2336 60.7653 50.4363 60.872C50.6389 60.9787 50.7403 61.0907 50.7403 61.208C50.7403 61.2933 50.7083 61.4053 50.6443 61.544C50.5909 61.6827 50.5269 61.8053 50.4523 61.912C50.3776 62.0187 50.3029 62.072 50.2283 62.072C50.1856 62.072 50.0416 62.0027 49.7963 61.864C49.5509 61.7253 49.2096 61.656 48.7723 61.656C48.3776 61.656 48.0416 61.752 47.7643 61.944C47.4869 62.1253 47.3483 62.3867 47.3483 62.728C47.3483 63.0267 47.4336 63.2667 47.6043 63.448C47.7749 63.6187 48.1056 63.784 48.5963 63.944C49.0869 64.104 49.5243 64.296 49.9083 64.52C50.2923 64.7333 50.5963 65.0107 50.8203 65.352C51.0443 65.6827 51.1563 66.1147 51.1563 66.648C51.1563 67.128 51.0283 67.5547 50.7723 67.928C50.5269 68.3013 50.1909 68.6 49.7643 68.824C49.3376 69.0373 48.8576 69.144 48.3243 69.144ZM53.8616 69.032C53.435 69.032 53.2216 68.9147 53.2216 68.68V60.952C53.2216 60.7173 53.435 60.6 53.8616 60.6H53.9256C54.3523 60.6 54.5656 60.7173 54.5656 60.952V68.68C54.5656 68.9147 54.3523 69.032 53.9256 69.032H53.8616ZM53.8936 59.48C53.6376 59.48 53.4563 59.448 53.3496 59.384C53.243 59.32 53.1896 59.2347 53.1896 59.128V58.168C53.1896 58.0613 53.243 57.976 53.3496 57.912C53.4563 57.848 53.6376 57.816 53.8936 57.816C54.1496 57.816 54.331 57.848 54.4376 57.912C54.5443 57.9653 54.5976 58.0507 54.5976 58.168V59.128C54.5976 59.2347 54.5443 59.32 54.4376 59.384C54.331 59.448 54.1496 59.48 53.8936 59.48ZM59.776 69.096C59.5733 69.096 59.3547 69.064 59.12 69C58.8853 68.9467 58.6613 68.8453 58.448 68.696C58.2347 68.536 58.0587 68.312 57.92 68.024C57.7813 67.7253 57.712 67.3467 57.712 66.888V61.784H56.912C56.6987 61.784 56.592 61.624 56.592 61.304V61.112C56.592 60.792 56.6987 60.632 56.912 60.632H57.712L57.904 58.952C57.9253 58.7173 58.096 58.6 58.416 58.6H58.576C58.896 58.6 59.056 58.7173 59.056 58.952V60.632H60.4C60.6133 60.632 60.72 60.792 60.72 61.112V61.304C60.72 61.624 60.6133 61.784 60.4 61.784H59.056V66.76C59.056 67.24 59.1413 67.56 59.312 67.72C59.4827 67.8693 59.6853 67.944 59.92 67.944C60.1547 67.944 60.3093 67.9333 60.384 67.912C60.4587 67.88 60.5333 67.864 60.608 67.864C60.6827 67.864 60.7413 67.9173 60.784 68.024C60.8373 68.1307 60.8747 68.248 60.896 68.376C60.928 68.4933 60.944 68.5733 60.944 68.616C60.944 68.7547 60.8747 68.8613 60.736 68.936C60.608 69 60.4533 69.0427 60.272 69.064C60.0907 69.0853 59.9253 69.096 59.776 69.096ZM66.2688 69.096C64.9461 69.096 63.9594 68.7493 63.3088 68.056C62.6688 67.3627 62.3488 66.3013 62.3488 64.872C62.3488 63.9227 62.4874 63.128 62.7648 62.488C63.0528 61.848 63.4741 61.3627 64.0288 61.032C64.5834 60.7013 65.2661 60.536 66.0768 60.536C66.8128 60.536 67.4208 60.696 67.9008 61.016C68.3914 61.336 68.7594 61.8053 69.0048 62.424C69.2501 63.0427 69.3728 63.8053 69.3728 64.712C69.3728 64.776 69.3408 64.8613 69.2768 64.968C69.2234 65.064 69.1541 65.1547 69.0688 65.24C68.9834 65.3253 68.9088 65.368 68.8448 65.368H63.7888C63.8528 66.2533 64.0821 66.904 64.4768 67.32C64.8714 67.736 65.4634 67.944 66.2528 67.944C66.7221 67.944 67.1168 67.8907 67.4368 67.784C67.7674 67.6667 68.0288 67.5547 68.2208 67.448C68.4128 67.3307 68.5354 67.272 68.5888 67.272C68.6634 67.272 68.7434 67.3253 68.8288 67.432C68.9141 67.5387 68.9888 67.656 69.0528 67.784C69.1168 67.912 69.1488 68.008 69.1488 68.072C69.1488 68.168 69.0741 68.2747 68.9248 68.392C68.7754 68.5093 68.5674 68.6213 68.3008 68.728C68.0448 68.8347 67.7408 68.9253 67.3888 69C67.0474 69.064 66.6741 69.096 66.2688 69.096ZM63.7888 64.216H67.9488C67.9488 63.3733 67.7888 62.744 67.4688 62.328C67.1488 61.9013 66.6688 61.688 66.0288 61.688C65.3354 61.688 64.8021 61.9013 64.4288 62.328C64.0554 62.744 63.8421 63.3733 63.7888 64.216Z" fill="#F4F4F4"/>
<defs>
<clipPath id="clip0_294_6478">
<rect width="30" height="24" fill="white" transform="translate(27 18)"/>
</clipPath>
</defs>
</svg>
