<svg width="19" height="19" viewBox="0 0 19 19" fill="none" xmlns="http://www.w3.org/2000/svg">
<path d="M10.1144 18.5H1.49346C0.944627 18.5 0.5 18.0551 0.5 17.5065V1.49345C0.5 0.944694 0.944697 0.5 1.49346 0.5H17.5066C18.0552 0.5 18.5 0.944694 18.5 1.49345V17.5065C18.5 18.0552 18.0552 18.5 17.5066 18.5H12.9197V11.5294H15.2594L15.6098 8.81284H12.9197V7.07849C12.9197 6.29198 13.1381 5.756 14.266 5.756L15.7045 5.75537V3.32566C15.4557 3.29255 14.6018 3.21859 13.6083 3.21859C11.5343 3.21859 10.1144 4.48457 10.1144 6.80945V8.81284H7.76867V11.5294H10.1144V18.5Z" fill="#E0E0E0"/>
</svg>
