<svg width="25" height="25" viewBox="0 0 25 25" fill="none" xmlns="http://www.w3.org/2000/svg">
<path fill-rule="evenodd" clip-rule="evenodd" d="M12.3078 14.0863C11.4134 14.0863 9.21698 14.0891 9.21698 14.0891V11.9109H14.7075C15.09 14.5465 13.9364 18.5 9.21698 18.5C6.05957 18.5 3.5 16.0375 3.5 13C3.5 9.96242 6.05957 7.5 9.21698 7.5C10.6985 7.5 12.0484 8.04216 13.0641 8.93152C12.277 9.64656 12.0247 9.91914 11.8103 10.1507C11.6988 10.2712 11.5976 10.3806 11.4366 10.5354C10.8492 10.068 10.2087 9.73267 9.21698 9.73267C7.3413 9.73267 5.87736 11.1955 5.87736 13C5.87736 14.8045 7.3413 16.2673 9.21698 16.2673C11.0704 16.2673 11.8235 15.4984 12.3078 14.0863ZM19.5189 10.1139V12.0198H21.5V13.3812H19.5189V15.3416H18.1038V13.3812H16.066V12.0198H18.1038V10.1139H19.5189Z" fill="#E0E0E0"/>
</svg>
