<svg width="25" height="25" viewBox="0 0 25 25" fill="none" xmlns="http://www.w3.org/2000/svg">
<path fill-rule="evenodd" clip-rule="evenodd" d="M12.5 3.5C10.0557 3.5 9.74926 3.51036 8.78931 3.55416C7.83137 3.59785 7.17712 3.75001 6.60466 3.97251C6.01283 4.20247 5.51092 4.51021 5.01055 5.01055C4.51021 5.51092 4.20247 6.01283 3.97251 6.60466C3.75001 7.17712 3.59785 7.83137 3.55416 8.78931C3.51036 9.74926 3.5 10.0557 3.5 12.5C3.5 14.9443 3.51036 15.2507 3.55416 16.2107C3.59785 17.1686 3.75001 17.8229 3.97251 18.3953C4.20247 18.9872 4.51021 19.4891 5.01055 19.9895C5.51092 20.4898 6.01283 20.7975 6.60466 21.0275C7.17712 21.25 7.83137 21.4021 8.78931 21.4458C9.74926 21.4896 10.0557 21.5 12.5 21.5C14.9443 21.5 15.2507 21.4896 16.2107 21.4458C17.1686 21.4021 17.8229 21.25 18.3953 21.0275C18.9872 20.7975 19.4891 20.4898 19.9895 19.9895C20.4898 19.4891 20.7975 18.9872 21.0275 18.3953C21.25 17.8229 21.4021 17.1686 21.4458 16.2107C21.4896 15.2507 21.5 14.9443 21.5 12.5C21.5 10.0557 21.4896 9.74926 21.4458 8.78931C21.4021 7.83137 21.25 7.17712 21.0275 6.60466C20.7975 6.01283 20.4898 5.51092 19.9895 5.01055C19.4891 4.51021 18.9872 4.20247 18.3953 3.97251C17.8229 3.75001 17.1686 3.59785 16.2107 3.55416C15.2507 3.51036 14.9443 3.5 12.5 3.5ZM12.5 5.12162C14.9031 5.12162 15.1878 5.1308 16.1368 5.1741C17.0143 5.21411 17.4908 5.36073 17.8079 5.48398C18.228 5.64725 18.5278 5.84227 18.8428 6.15723C19.1577 6.47215 19.3528 6.77196 19.516 7.19206C19.6393 7.50919 19.7859 7.98574 19.8259 8.86323C19.8692 9.81224 19.8784 10.0969 19.8784 12.5C19.8784 14.9031 19.8692 15.1878 19.8259 16.1368C19.7859 17.0143 19.6393 17.4908 19.516 17.8079C19.3528 18.228 19.1577 18.5278 18.8428 18.8428C18.5278 19.1577 18.228 19.3528 17.8079 19.516C17.4908 19.6393 17.0143 19.7859 16.1368 19.8259C15.1879 19.8692 14.9033 19.8784 12.5 19.8784C10.0967 19.8784 9.81213 19.8692 8.86323 19.8259C7.98574 19.7859 7.50919 19.6393 7.19206 19.516C6.77196 19.3528 6.47215 19.1577 6.15723 18.8428C5.84231 18.5278 5.64725 18.228 5.48398 17.8079C5.36073 17.4908 5.21411 17.0143 5.1741 16.1368C5.1308 15.1878 5.12162 14.9031 5.12162 12.5C5.12162 10.0969 5.1308 9.81224 5.1741 8.86323C5.21411 7.98574 5.36073 7.50919 5.48398 7.19206C5.64725 6.77196 5.84227 6.47215 6.15723 6.15723C6.47215 5.84227 6.77196 5.64725 7.19206 5.48398C7.50919 5.36073 7.98574 5.21411 8.86323 5.1741C9.81224 5.1308 10.0969 5.12162 12.5 5.12162ZM7.87838 12.5C7.87838 9.94753 9.94753 7.87838 12.5 7.87838C15.0525 7.87838 17.1216 9.94753 17.1216 12.5C17.1216 15.0525 15.0525 17.1216 12.5 17.1216C9.94753 17.1216 7.87838 15.0525 7.87838 12.5ZM12.5 15.5C10.8431 15.5 9.5 14.1569 9.5 12.5C9.5 10.8431 10.8431 9.5 12.5 9.5C14.1569 9.5 15.5 10.8431 15.5 12.5C15.5 14.1569 14.1569 15.5 12.5 15.5ZM17.3042 8.77577C17.9007 8.77577 18.3842 8.29226 18.3842 7.69579C18.3842 7.09931 17.9007 6.61577 17.3042 6.61577C16.7078 6.61577 16.2242 7.09931 16.2242 7.69579C16.2242 8.29226 16.7078 8.77577 17.3042 8.77577Z" fill="#E0E0E0"/>
</svg>
