<svg width="19" height="17" viewBox="0 0 19 17" fill="none" xmlns="http://www.w3.org/2000/svg">
<path fill-rule="evenodd" clip-rule="evenodd" d="M2.61877 4.27127H2.59337C1.32338 4.27127 0.5 3.44039 0.5 2.38717C0.5 1.31347 1.34772 0.5 2.64311 0.5C3.93744 0.5 4.7333 1.31142 4.7587 2.3841C4.7587 3.43731 3.93744 4.27127 2.61877 4.27127ZM18.5 16.5H14.5218V10.8754C14.5218 9.40312 13.8995 8.39806 12.531 8.39806C11.4844 8.39806 10.9023 9.07629 10.6313 9.72994C10.5419 9.93651 10.5435 10.2146 10.5452 10.5012V10.5012C10.5454 10.5401 10.5456 10.5791 10.5456 10.6182V16.5H6.60442C6.60442 16.5 6.65522 6.5365 6.60442 5.63082H10.5456V7.33665C10.7785 6.5908 12.0379 5.52632 14.0476 5.52632C16.541 5.52632 18.5 7.08974 18.5 10.4563V16.5ZM4.46237 5.63082H0.954022V16.5H4.46237V5.63082Z" fill="#E0E0E0"/>
</svg>
