<svg width="25" height="25" viewBox="0 0 25 25" fill="none" xmlns="http://www.w3.org/2000/svg">
<path d="M12.5005 3.5C7.53034 3.5 3.5 7.52928 3.5 12.5005C3.5 16.1848 5.71626 19.3515 8.88825 20.7433C8.86285 20.1156 8.88402 19.3599 9.04384 18.6762C9.21741 17.9459 10.2017 13.7727 10.2017 13.7727C10.2017 13.7727 9.91489 13.198 9.91489 12.3481C9.91489 11.0146 10.6886 10.0186 11.6506 10.0186C12.4688 10.0186 12.8646 10.6335 12.8646 11.3702C12.8646 12.1925 12.3397 13.4234 12.0698 14.5633C11.8443 15.5191 12.5482 16.297 13.4901 16.297C15.1952 16.297 16.3435 14.1072 16.3435 11.512C16.3435 9.54022 15.0153 8.06377 12.599 8.06377C9.86938 8.06377 8.16855 10.099 8.16855 12.3725C8.16855 13.1578 8.39928 13.7103 8.76125 14.1379C8.92847 14.3358 8.9507 14.4141 8.89037 14.6406C8.84803 14.8046 8.74854 15.2047 8.70727 15.3624C8.64694 15.59 8.46278 15.6725 8.25745 15.5878C6.99903 15.0745 6.41374 13.6976 6.41374 12.1491C6.41374 9.59314 8.56968 6.52593 12.8456 6.52593C16.2821 6.52593 18.5439 9.0142 18.5439 11.6824C18.5439 15.2132 16.5817 17.8507 13.687 17.8507C12.7164 17.8507 11.802 17.3257 11.4887 16.7298C11.4887 16.7298 10.9659 18.8032 10.8558 19.2033C10.6653 19.8965 10.2917 20.5908 9.94981 21.1306C10.7595 21.3698 11.6147 21.5 12.5005 21.5C17.4707 21.5 21.5 17.4707 21.5 12.5005C21.5 7.52928 17.4707 3.5 12.5005 3.5Z" fill="#E0E0E0"/>
</svg>
