<svg width="25" height="25" viewBox="0 0 25 25" fill="none" xmlns="http://www.w3.org/2000/svg">
<path fill-rule="evenodd" clip-rule="evenodd" d="M21.5 21.5H18.0717C18.0717 13.4649 11.5352 6.92836 3.50019 6.92836V3.5C13.4252 3.5 21.5 11.5749 21.5 21.5ZM3.50019 18.9286C3.50019 17.5085 4.65154 16.3571 6.07159 16.3571C7.49165 16.3571 8.64299 17.5085 8.64299 18.9286C8.64299 20.3486 7.49165 21.5 6.07159 21.5C4.65154 21.5 3.50019 20.3486 3.50019 18.9286ZM12.0718 21.5H15.5001C15.5001 14.8831 10.1169 9.49979 3.5 9.49979V12.9288C8.22623 12.9288 12.0718 16.7737 12.0718 21.5Z" fill="#E0E0E0"/>
</svg>
