<svg width="25" height="25" viewBox="0 0 25 25" fill="none" xmlns="http://www.w3.org/2000/svg">
<path d="M21.5 7.27573C20.8386 7.57692 20.1265 7.78061 19.3796 7.87161C20.1424 7.40358 20.7277 6.66143 21.0034 5.77736C20.2892 6.21073 19.5 6.526 18.6569 6.69502C17.9849 5.95937 17.0246 5.5 15.9617 5.5C13.9237 5.5 12.2702 7.19556 12.2702 9.28657C12.2702 9.58342 12.3019 9.87161 12.3653 10.149C9.29609 9.99079 6.57554 8.48483 4.75304 6.19122C4.43502 6.75244 4.2533 7.40358 4.2533 8.09697C4.2533 9.41008 4.90518 10.5693 5.8962 11.2486C5.29186 11.2302 4.72134 11.058 4.22266 10.7763V10.8229C4.22266 12.6582 5.49577 14.1891 7.18621 14.5358C6.87665 14.6246 6.55018 14.669 6.21315 14.669C5.97544 14.669 5.743 14.6463 5.51796 14.6018C5.98811 16.1056 7.35103 17.201 8.96751 17.2302C7.70391 18.2465 6.11067 18.8521 4.38114 18.8521C4.0832 18.8521 3.78843 18.8348 3.5 18.8001C5.13444 19.8727 7.07633 20.5 9.16086 20.5C15.9543 20.5 19.668 14.7308 19.668 9.72644C19.668 9.56176 19.6648 9.39707 19.6585 9.23564C20.3801 8.70152 21.0066 8.03521 21.5 7.27573Z" fill="#E0E0E0"/>
</svg>
