<svg width="25" height="25" viewBox="0 0 25 25" fill="none" xmlns="http://www.w3.org/2000/svg">
<path fill-rule="evenodd" clip-rule="evenodd" d="M20.6045 7.46979C21.1439 8.03063 21.32 9.30424 21.32 9.30424C21.32 9.30424 21.5 10.8002 21.5 12.2956V13.698C21.5 15.194 21.32 16.6894 21.32 16.6894C21.32 16.6894 21.1439 17.963 20.6045 18.5239C19.9878 19.1873 19.3039 19.2559 18.9174 19.2946C18.8749 19.2989 18.836 19.3028 18.8011 19.3071C16.2822 19.4942 12.5 19.5 12.5 19.5C12.5 19.5 7.82 19.4561 6.38 19.314C6.31177 19.3009 6.22907 19.2907 6.13541 19.2792C5.67928 19.223 4.96335 19.1348 4.39494 18.5239C3.8555 17.963 3.68 16.6894 3.68 16.6894C3.68 16.6894 3.5 15.194 3.5 13.698V12.2956C3.5 10.8002 3.68 9.30424 3.68 9.30424C3.68 9.30424 3.8555 8.03063 4.39494 7.46979C5.01305 6.80538 5.69754 6.73757 6.08411 6.69928C6.12602 6.69513 6.16443 6.69132 6.19887 6.68714C8.71775 6.5 12.4961 6.5 12.4961 6.5H12.5039C12.5039 6.5 16.2822 6.5 18.8011 6.68714C18.8356 6.69133 18.874 6.69514 18.9159 6.6993C19.3022 6.7376 19.987 6.80549 20.6045 7.46979ZM10.6409 10.2041L10.6415 15.3973L15.5043 12.8097L10.6409 10.2041Z" fill="#E0E0E0"/>
</svg>
